<?xml version="1.0" standalone="no"?>
<!DOCTYPE svg PUBLIC "-//W3C//DTD SVG 20010904//EN"
 "http://www.w3.org/TR/2001/REC-SVG-20010904/DTD/svg10.dtd">
<svg version="1.0" xmlns="http://www.w3.org/2000/svg"
 width="300.000000pt" height="300.000000pt" viewBox="0 0 300.000000 300.000000"
 preserveAspectRatio="xMidYMid meet">
<metadata>
Created by potrace 1.11, written by Peter Selinger 2001-2013
</metadata>
<g transform="translate(0.000000,300.000000) scale(0.100000,-0.100000)"
fill="#000000" stroke="none">
<path d="M225 2993 c-45 -9 -109 -50 -150 -95 -76 -84 -74 -65 -74 -718 l1
-580 36 -27 c47 -35 278 -219 316 -253 16 -14 39 -34 52 -45 28 -25 120 -106
154 -135 119 -103 472 -447 600 -586 76 -81 187 -215 249 -298 28 -38 51 -66
51 -62 0 15 -97 187 -155 275 -134 205 -323 417 -573 649 -33 30 -47 52 -57
93 -15 57 -101 440 -110 487 -3 15 -18 99 -34 187 -16 88 -32 178 -35 200 -4
23 -9 52 -11 65 -3 14 -14 86 -25 160 -11 74 -22 141 -25 148 -2 6 0 12 5 12
6 0 10 -4 10 -9 0 -5 6 -16 13 -23 22 -23 220 -277 321 -413 54 -71 105 -139
114 -150 71 -88 255 -397 332 -558 89 -186 210 -497 210 -540 0 -9 4 -18 8
-21 5 -3 5 18 1 47 -5 29 -11 70 -14 92 -26 179 -89 410 -157 575 -44 106 -45
113 -35 185 4 22 9 69 12 105 3 36 10 92 15 124 5 32 7 62 5 67 -3 4 -1 10 5
14 6 4 8 10 5 15 -3 4 -1 31 5 59 5 27 12 72 16 98 6 47 27 178 39 238 51 272
114 553 135 602 l9 21 -622 0 c-342 -1 -631 -3 -642 -5z"/>
<path d="M1537 2907 c58 -220 139 -649 178 -947 64 -479 64 -460 -1 -615 -78
-185 -141 -374 -189 -572 -35 -141 -84 -377 -80 -382 2 -1 15 37 29 85 53 182
99 310 182 514 38 91 252 508 314 613 36 59 70 115 75 125 77 132 410 615 493
717 l24 29 -6 -59 c-3 -33 -9 -76 -11 -95 -3 -19 -7 -53 -10 -75 -21 -179 -78
-514 -110 -655 -2 -8 -9 -37 -15 -65 -6 -27 -13 -58 -15 -67 -2 -9 -23 -87
-46 -173 l-42 -157 -55 -51 c-200 -190 -364 -372 -510 -567 -40 -52 -75 -99
-80 -105 -44 -57 -196 -309 -214 -355 -12 -31 -3 -22 55 62 26 36 53 72 59 80
7 7 31 36 53 63 21 28 51 64 66 80 15 17 48 55 74 85 168 194 565 600 779 795
60 55 114 105 120 111 24 23 244 201 292 236 l51 38 -1 587 -1 588 -28 57
c-30 61 -74 105 -140 140 l-42 23 -636 2 -636 2 24 -92z"/>
<path d="M2 875 c0 -557 2 -645 16 -680 34 -88 119 -164 204 -182 25 -6 190
-10 366 -10 l320 0 -107 141 c-143 188 -327 467 -431 651 -102 181 -224 419
-342 665 l-26 55 0 -640z"/>
<path d="M2982 1488 c-6 -13 -58 -120 -115 -238 -147 -302 -334 -627 -506
-880 -83 -122 -242 -333 -258 -343 -8 -5 -11 -12 -8 -16 8 -15 665 -6 705 9
78 29 136 84 175 165 19 38 20 69 21 683 0 353 0 642 -1 642 -1 0 -7 -10 -13
-22z"/>
</g>
</svg>
